<svg width="45" height="32" viewBox="0 0 45 32" fill="none" xmlns="http://www.w3.org/2000/svg">
<path fill-rule="evenodd" clip-rule="evenodd" d="M43.5999 12.0346C42.6099 10.794 40.6374 10.0481 39.293 9.91128C36.9796 3.2 28.8249 0 19.7925 0C9.59955 0 -0.832649 3.96842 0.052652 13.9549C0.918513 23.6662 11.6378 32 19.7222 32C24.9009 32 31.3403 29.0827 35.5619 24.6196C37.2383 24.2571 40.2337 23.0556 42.1927 21.1173C43.4264 19.8993 44.892 18.4105 44.9937 16.1248C45.0968 13.9624 43.9095 12.4135 43.5999 12.0346ZM42.0716 16.003C41.8981 17.9188 40.0752 18.988 39.9077 19.0752C39.6291 19.2222 39.3365 19.3405 39.0343 19.4286C39.6854 17.9003 40.0255 16.2565 40.0348 14.594C40.0348 14.2586 40.0228 13.9248 40.0019 13.594C41.3089 14.1519 42.1613 15.015 42.0716 16.003ZM3.17832 11.4527C3.17832 6.43316 10.5015 2.36398 19.537 2.36398L19.534 2.36849C27.7664 2.36849 34.5751 5.74293 35.7161 10.1369C35.9494 11.0097 35.9494 11.9289 35.7161 12.8016C34.5467 17.185 27.7469 20.5475 19.534 20.5475C18.0014 20.5484 16.4713 20.4267 14.9579 20.1835L7.18162 23.167L8.41237 18.1189C5.19418 16.4602 3.17832 14.0888 3.17832 11.4527Z" fill="#2A2A2B"/>
</svg>
